<?xml version="1.0" standalone="no"?>
<!DOCTYPE svg PUBLIC "-//W3C//DTD SVG 20010904//EN"
 "http://www.w3.org/TR/2001/REC-SVG-20010904/DTD/svg10.dtd">
<svg version="1.0" xmlns="http://www.w3.org/2000/svg"
 width="79.000000pt" height="102.000000pt" viewBox="0 0 79.000000 102.000000"
 preserveAspectRatio="xMidYMid meet">

<g transform="translate(0.000000,102.000000) scale(0.100000,-0.100000)"
fill="#000000" stroke="none">
<path d="M0 510 l0 -510 395 0 395 0 0 510 0 510 -395 0 -395 0 0 -510z m430
180 l0 -240 -30 0 -30 0 0 240 0 240 30 0 30 0 0 -240z m-260 165 c0 -24 -2
-25 -70 -25 -68 0 -70 1 -70 25 0 24 2 25 70 25 68 0 70 -1 70 -25z m600 -20
c0 -24 -2 -25 -70 -25 -68 0 -70 1 -70 25 0 24 2 25 70 25 68 0 70 -1 70 -25z
m-600 -80 c0 -24 -2 -25 -70 -25 -68 0 -70 1 -70 25 0 24 2 25 70 25 68 0 70
-1 70 -25z m190 15 c0 -5 -21 -10 -47 -10 -84 0 -83 5 -83 -293 0 -228 2 -263
17 -279 14 -16 33 -18 151 -18 112 0 139 3 154 17 17 15 18 37 18 276 0 301 1
297 -82 297 -26 0 -48 5 -48 10 0 6 33 10 80 10 l80 0 0 -355 0 -355 -200 0
-200 0 0 355 0 355 80 0 c47 0 80 -4 80 -10z m410 -35 c0 -24 -2 -25 -70 -25
-68 0 -70 1 -70 25 0 24 2 25 70 25 68 0 70 -1 70 -25z m-410 -65 c0 -78 0
-80 -30 -95 -90 -47 -94 -192 -7 -245 42 -26 112 -26 154 0 87 53 83 198 -7
245 -30 15 -30 16 -30 97 l0 81 46 -6 c25 -2 51 -10 57 -16 18 -18 17 -515 -1
-533 -18 -18 -266 -18 -284 0 -10 10 -14 70 -16 240 -2 125 0 242 3 260 7 36
29 50 83 51 l32 1 0 -80z m-190 -15 c0 -24 -2 -25 -70 -25 -68 0 -70 1 -70 25
0 24 2 25 70 25 68 0 70 -1 70 -25z m600 -20 c0 -24 -2 -25 -70 -25 -68 0 -70
1 -70 25 0 24 2 25 70 25 68 0 70 -1 70 -25z m-600 -80 c0 -24 -2 -25 -70 -25
-68 0 -70 1 -70 25 0 24 2 25 70 25 68 0 70 -1 70 -25z m192 -47 l3 -63 38 -3
37 -3 0 65 c0 36 4 66 9 66 19 0 68 -60 74 -89 26 -127 -122 -210 -212 -120
-51 50 -50 128 1 180 16 16 33 29 38 29 5 0 10 -28 12 -62z m408 37 c0 -24 -2
-25 -70 -25 -68 0 -70 1 -70 25 0 24 2 25 70 25 68 0 70 -1 70 -25z m-600 -80
c0 -24 -2 -25 -70 -25 -68 0 -70 1 -70 25 0 24 2 25 70 25 68 0 70 -1 70 -25z
m600 -15 c0 -18 -7 -20 -70 -20 -63 0 -70 2 -70 20 0 18 7 20 70 20 63 0 70
-2 70 -20z m-600 -85 c0 -24 -2 -25 -70 -25 -68 0 -70 1 -70 25 0 24 2 25 70
25 68 0 70 -1 70 -25z m590 -10 c0 -24 -2 -25 -65 -25 -63 0 -65 1 -65 25 0
24 2 25 65 25 63 0 65 -1 65 -25z m-590 -85 c0 -18 -7 -20 -70 -20 -63 0 -70
2 -70 20 0 18 7 20 70 20 63 0 70 -2 70 -20z m590 -15 c0 -24 -2 -25 -65 -25
-63 0 -65 1 -65 25 0 24 2 25 65 25 63 0 65 -1 65 -25z m-590 -80 c0 -24 -2
-25 -70 -25 -68 0 -70 1 -70 25 0 24 2 25 70 25 68 0 70 -1 70 -25z m600 -20
c0 -24 -2 -25 -70 -25 -68 0 -70 1 -70 25 0 24 2 25 70 25 68 0 70 -1 70 -25z
m-600 -70 c0 -24 -2 -25 -70 -25 -68 0 -70 1 -70 25 0 24 2 25 70 25 68 0 70
-1 70 -25z m590 -20 c0 -24 -2 -25 -65 -25 -63 0 -65 1 -65 25 0 24 2 25 65
25 63 0 65 -1 65 -25z"/>
</g>
</svg>
